<svg width="260" height="260" viewBox="0 0 260 260" fill="none" xmlns="http://www.w3.org/2000/svg">
<path d="M61.9318 125H58.4091C58.2008 123.987 57.8362 123.097 57.3153 122.33C56.804 121.562 56.179 120.919 55.4403 120.398C54.7112 119.867 53.9015 119.47 53.0114 119.205C52.1212 118.939 51.1932 118.807 50.2273 118.807C48.4659 118.807 46.8703 119.252 45.4403 120.142C44.0199 121.032 42.8883 122.344 42.0455 124.077C41.2121 125.81 40.7955 127.936 40.7955 130.455C40.7955 132.973 41.2121 135.099 42.0455 136.832C42.8883 138.565 44.0199 139.877 45.4403 140.767C46.8703 141.657 48.4659 142.102 50.2273 142.102C51.1932 142.102 52.1212 141.97 53.0114 141.705C53.9015 141.439 54.7112 141.046 55.4403 140.526C56.179 139.995 56.804 139.347 57.3153 138.58C57.8362 137.803 58.2008 136.913 58.4091 135.909H61.9318C61.6667 137.396 61.1837 138.726 60.483 139.901C59.7822 141.075 58.911 142.074 57.8693 142.898C56.8277 143.712 55.6581 144.332 54.3608 144.759C53.0729 145.185 51.6951 145.398 50.2273 145.398C47.7462 145.398 45.5398 144.792 43.608 143.58C41.6761 142.367 40.1563 140.644 39.0483 138.409C37.9403 136.174 37.3864 133.523 37.3864 130.455C37.3864 127.386 37.9403 124.735 39.0483 122.5C40.1563 120.265 41.6761 118.542 43.608 117.33C45.5398 116.117 47.7462 115.511 50.2273 115.511C51.6951 115.511 53.0729 115.724 54.3608 116.151C55.6581 116.577 56.8277 117.202 57.8693 118.026C58.911 118.84 59.7822 119.834 60.483 121.009C61.1837 122.173 61.6667 123.504 61.9318 125ZM67.6243 145V115.909H77.4538C79.7266 115.909 81.5921 116.297 83.0504 117.074C84.5088 117.841 85.5883 118.897 86.2891 120.241C86.9898 121.586 87.3402 123.116 87.3402 124.83C87.3402 126.544 86.9898 128.063 86.2891 129.389C85.5883 130.715 84.5135 131.757 83.0646 132.514C81.6158 133.262 79.7644 133.636 77.5107 133.636H69.5561V130.455H77.397C78.95 130.455 80.2 130.227 81.147 129.773C82.1035 129.318 82.7947 128.674 83.2209 127.841C83.6565 126.998 83.8743 125.994 83.8743 124.83C83.8743 123.665 83.6565 122.647 83.2209 121.776C82.7853 120.904 82.0893 120.232 81.1328 119.759C80.1764 119.276 78.9122 119.034 77.3402 119.034H71.147V145H67.6243ZM81.3175 131.932L88.4766 145H84.3857L77.3402 131.932H81.3175ZM93.2102 145V115.909H110.767V119.034H96.733V128.864H109.858V131.989H96.733V141.875H110.994V145H93.2102ZM118.31 145H114.616L125.298 115.909H128.935L139.616 145H135.923L127.23 120.511H127.003L118.31 145ZM119.673 133.636H134.56V136.761H119.673V133.636ZM139.158 119.034V115.909H160.977V119.034H151.829V145H148.306V119.034H139.158ZM169.936 115.909V145H166.413V115.909H169.936ZM178.192 115.909L186.829 140.398H187.17L195.806 115.909H199.499L188.817 145H185.181L174.499 115.909H178.192ZM204.031 145V115.909H221.587V119.034H207.553V128.864H220.678V131.989H207.553V141.875H221.815V145H204.031Z" fill="#DF168C"/>
<path d="M130 255C199.036 255 255 199.036 255 130C255 60.9644 199.036 5 130 5C60.9644 5 5 60.9644 5 130C5 199.036 60.9644 255 130 255Z" stroke="#DF168C" stroke-width="10" stroke-miterlimit="10"/>
</svg>
