<svg width="260" height="260" viewBox="0 0 260 260" fill="none" xmlns="http://www.w3.org/2000/svg">
<path d="M130 255C199.036 255 255 199.036 255 130C255 60.9644 199.036 5 130 5C60.9644 5 5 60.9644 5 130C5 199.036 60.9644 255 130 255Z" stroke="#999999" stroke-width="10" stroke-miterlimit="10"/>
<path d="M80.5227 145V115.909H90.3523C92.6345 115.909 94.5 116.321 95.9489 117.145C97.4072 117.959 98.4867 119.062 99.1875 120.455C99.8883 121.847 100.239 123.4 100.239 125.114C100.239 126.828 99.8883 128.385 99.1875 129.787C98.4962 131.188 97.4261 132.306 95.9773 133.139C94.5284 133.963 92.6723 134.375 90.4091 134.375H83.3636V131.25H90.2955C91.858 131.25 93.1127 130.98 94.0597 130.44C95.0066 129.901 95.6932 129.171 96.1193 128.253C96.5549 127.325 96.7727 126.278 96.7727 125.114C96.7727 123.949 96.5549 122.907 96.1193 121.989C95.6932 121.07 95.0019 120.35 94.0455 119.83C93.089 119.299 91.8201 119.034 90.2386 119.034H84.0455V145H80.5227ZM105.913 145V115.909H115.743C118.016 115.909 119.881 116.297 121.339 117.074C122.798 117.841 123.877 118.897 124.578 120.241C125.279 121.586 125.629 123.116 125.629 124.83C125.629 126.544 125.279 128.063 124.578 129.389C123.877 130.715 122.803 131.757 121.354 132.514C119.905 133.262 118.054 133.636 115.8 133.636H107.845V130.455H115.686C117.239 130.455 118.489 130.227 119.436 129.773C120.393 129.318 121.084 128.674 121.51 127.841C121.946 126.998 122.163 125.994 122.163 124.83C122.163 123.665 121.946 122.647 121.51 121.776C121.074 120.904 120.378 120.232 119.422 119.759C118.465 119.276 117.201 119.034 115.629 119.034H109.436V145H105.913ZM119.607 131.932L126.766 145H122.675L115.629 131.932H119.607ZM156.045 130.455C156.045 133.523 155.491 136.174 154.383 138.409C153.275 140.644 151.755 142.367 149.823 143.58C147.891 144.792 145.685 145.398 143.204 145.398C140.723 145.398 138.516 144.792 136.585 143.58C134.653 142.367 133.133 140.644 132.025 138.409C130.917 136.174 130.363 133.523 130.363 130.455C130.363 127.386 130.917 124.735 132.025 122.5C133.133 120.265 134.653 118.542 136.585 117.33C138.516 116.117 140.723 115.511 143.204 115.511C145.685 115.511 147.891 116.117 149.823 117.33C151.755 118.542 153.275 120.265 154.383 122.5C155.491 124.735 156.045 127.386 156.045 130.455ZM152.636 130.455C152.636 127.936 152.214 125.81 151.371 124.077C150.538 122.344 149.406 121.032 147.977 120.142C146.556 119.252 144.965 118.807 143.204 118.807C141.442 118.807 139.847 119.252 138.417 120.142C136.996 121.032 135.865 122.344 135.022 124.077C134.189 125.81 133.772 127.936 133.772 130.455C133.772 132.973 134.189 135.099 135.022 136.832C135.865 138.565 136.996 139.877 138.417 140.767C139.847 141.657 141.442 142.102 143.204 142.102C144.965 142.102 146.556 141.657 147.977 140.767C149.406 139.877 150.538 138.565 151.371 136.832C152.214 135.099 152.636 132.973 152.636 130.455ZM161.968 145V115.909H179.411V119.034H165.491V128.864H178.104V131.989H165.491V145H161.968Z" fill="#666666"/>
</svg>
