<svg width="260" height="260" viewBox="0 0 260 260" fill="none" xmlns="http://www.w3.org/2000/svg">
<path d="M130 255C199.036 255 255 199.036 255 130C255 60.9644 199.036 5 130 5C60.9644 5 5 60.9644 5 130C5 199.036 60.9644 255 130 255Z" stroke="#1DAFEC" stroke-width="10" stroke-miterlimit="10"/>
<path d="M88.4318 125.182C88.2614 123.742 87.5701 122.625 86.358 121.83C85.1458 121.034 83.6591 120.636 81.8977 120.636C80.6098 120.636 79.483 120.845 78.517 121.261C77.5606 121.678 76.8125 122.251 76.2727 122.98C75.7424 123.709 75.4773 124.538 75.4773 125.466C75.4773 126.242 75.6619 126.91 76.0312 127.469C76.41 128.018 76.893 128.477 77.4801 128.847C78.0672 129.206 78.6828 129.505 79.3267 129.741C79.9706 129.969 80.5625 130.153 81.1023 130.295L84.0568 131.091C84.8144 131.29 85.6572 131.564 86.5852 131.915C87.5227 132.265 88.4176 132.743 89.2699 133.349C90.1316 133.946 90.8419 134.713 91.4006 135.651C91.9593 136.588 92.2386 137.739 92.2386 139.102C92.2386 140.674 91.8267 142.095 91.0028 143.364C90.1884 144.633 88.9953 145.641 87.4233 146.389C85.8608 147.137 83.9621 147.511 81.7273 147.511C79.6439 147.511 77.84 147.175 76.3153 146.503C74.8002 145.83 73.607 144.893 72.7358 143.69C71.8741 142.488 71.3864 141.091 71.2727 139.5H74.9091C75.0038 140.598 75.3731 141.508 76.017 142.227C76.6705 142.937 77.4943 143.468 78.4886 143.818C79.4924 144.159 80.572 144.33 81.7273 144.33C83.072 144.33 84.2794 144.112 85.3494 143.676C86.4195 143.231 87.267 142.616 87.892 141.83C88.517 141.034 88.8295 140.106 88.8295 139.045C88.8295 138.08 88.5597 137.294 88.0199 136.688C87.4801 136.081 86.7699 135.589 85.8892 135.21C85.0085 134.831 84.0568 134.5 83.0341 134.216L79.4545 133.193C77.1818 132.54 75.3826 131.607 74.0568 130.395C72.7311 129.183 72.0682 127.597 72.0682 125.636C72.0682 124.008 72.5085 122.587 73.3892 121.375C74.2794 120.153 75.4725 119.206 76.9688 118.534C78.4744 117.852 80.1553 117.511 82.0114 117.511C83.8864 117.511 85.553 117.848 87.0114 118.52C88.4697 119.183 89.625 120.092 90.4773 121.247C91.339 122.402 91.7936 123.714 91.8409 125.182H88.4318ZM96.4396 121.034V117.909H118.258V121.034H109.11V147H105.587V121.034H96.4396ZM121.489 147H117.796L128.478 117.909H132.114L142.796 147H139.103L130.41 122.511H130.183L121.489 147ZM122.853 135.636H137.739V138.761H122.853V135.636ZM147.327 147V117.909H164.771V121.034H150.85V130.864H163.464V133.989H150.85V147H147.327ZM170.804 147V117.909H188.247V121.034H174.327V130.864H186.94V133.989H174.327V147H170.804Z" fill="#1DAFEC"/>
</svg>
