<svg width="260" height="260" viewBox="0 0 260 260" fill="none" xmlns="http://www.w3.org/2000/svg">
<path d="M130 255C199.036 255 255 199.036 255 130C255 60.9644 199.036 5 130 5C60.9644 5 5 60.9644 5 130C5 199.036 60.9644 255 130 255Z" stroke="#999999" stroke-width="10" stroke-miterlimit="10"/>
<path d="M77.4318 125.182C77.2614 123.742 76.5701 122.625 75.358 121.83C74.1458 121.034 72.6591 120.636 70.8977 120.636C69.6098 120.636 68.483 120.845 67.517 121.261C66.5606 121.678 65.8125 122.251 65.2727 122.98C64.7424 123.709 64.4773 124.538 64.4773 125.466C64.4773 126.242 64.6619 126.91 65.0312 127.469C65.41 128.018 65.893 128.477 66.4801 128.847C67.0672 129.206 67.6828 129.505 68.3267 129.741C68.9706 129.969 69.5625 130.153 70.1023 130.295L73.0568 131.091C73.8144 131.29 74.6572 131.564 75.5852 131.915C76.5227 132.265 77.4176 132.743 78.2699 133.349C79.1316 133.946 79.8419 134.713 80.4006 135.651C80.9593 136.588 81.2386 137.739 81.2386 139.102C81.2386 140.674 80.8267 142.095 80.0028 143.364C79.1884 144.633 77.9953 145.641 76.4233 146.389C74.8608 147.137 72.9621 147.511 70.7273 147.511C68.6439 147.511 66.84 147.175 65.3153 146.503C63.8002 145.83 62.607 144.893 61.7358 143.69C60.8741 142.488 60.3864 141.091 60.2727 139.5H63.9091C64.0038 140.598 64.3731 141.508 65.017 142.227C65.6705 142.937 66.4943 143.468 67.4886 143.818C68.4924 144.159 69.572 144.33 70.7273 144.33C72.072 144.33 73.2794 144.112 74.3494 143.676C75.4195 143.231 76.267 142.616 76.892 141.83C77.517 141.034 77.8295 140.106 77.8295 139.045C77.8295 138.08 77.5597 137.294 77.0199 136.688C76.4801 136.081 75.7699 135.589 74.8892 135.21C74.0085 134.831 73.0568 134.5 72.0341 134.216L68.4545 133.193C66.1818 132.54 64.3826 131.607 63.0568 130.395C61.7311 129.183 61.0682 127.597 61.0682 125.636C61.0682 124.008 61.5085 122.587 62.3892 121.375C63.2794 120.153 64.4725 119.206 65.9688 118.534C67.4744 117.852 69.1553 117.511 71.0114 117.511C72.8864 117.511 74.553 117.848 76.0114 118.52C77.4697 119.183 78.625 120.092 79.4773 121.247C80.339 122.402 80.7936 123.714 80.8409 125.182H77.4318ZM106.121 117.909H109.644V137.17C109.644 139.159 109.175 140.935 108.238 142.497C107.31 144.05 105.998 145.277 104.303 146.176C102.608 147.066 100.62 147.511 98.3374 147.511C96.0552 147.511 94.0665 147.066 92.3714 146.176C90.6764 145.277 89.3601 144.05 88.4226 142.497C87.4946 140.935 87.0305 139.159 87.0305 137.17V117.909H90.5533V136.886C90.5533 138.307 90.8658 139.571 91.4908 140.679C92.1158 141.777 93.0059 142.644 94.1612 143.278C95.326 143.903 96.718 144.216 98.3374 144.216C99.9567 144.216 101.349 143.903 102.513 143.278C103.678 142.644 104.568 141.777 105.184 140.679C105.809 139.571 106.121 138.307 106.121 136.886V117.909ZM116.679 147V117.909H126.509C128.791 117.909 130.656 118.321 132.105 119.145C133.563 119.959 134.643 121.062 135.344 122.455C136.045 123.847 136.395 125.4 136.395 127.114C136.395 128.828 136.045 130.385 135.344 131.787C134.652 133.188 133.582 134.306 132.134 135.139C130.685 135.963 128.829 136.375 126.565 136.375H119.52V133.25H126.452C128.014 133.25 129.269 132.98 130.216 132.44C131.163 131.901 131.849 131.171 132.276 130.253C132.711 129.325 132.929 128.278 132.929 127.114C132.929 125.949 132.711 124.907 132.276 123.989C131.849 123.07 131.158 122.35 130.202 121.83C129.245 121.299 127.976 121.034 126.395 121.034H120.202V147H116.679ZM143.263 117.909L151.899 142.398H152.24L160.876 117.909H164.57L153.888 147H150.251L139.57 117.909H143.263ZM172.624 117.909V147H169.101V117.909H172.624ZM178.721 147V144.443L194.403 121.034H178.55V117.909H198.607V120.466L182.925 143.875H198.778V147H178.721Z" fill="#666666"/>
</svg>
