<svg width="260" height="260" viewBox="0 0 260 260" fill="none" xmlns="http://www.w3.org/2000/svg">
<path d="M130 255C199.036 255 255 199.036 255 130C255 60.9644 199.036 5 130 5C60.9644 5 5 60.9644 5 130C5 199.036 60.9644 255 130 255Z" stroke="#999999" stroke-width="10" stroke-miterlimit="10"/>
<path d="M75.649 145V114.866H79.2981V128.285H95.3656V114.866H99.0147V145H95.3656V131.522H79.2981V145H75.649ZM131.746 129.933C131.746 133.111 131.172 135.858 130.024 138.173C128.877 140.488 127.302 142.273 125.301 143.529C123.3 144.784 121.014 145.412 118.444 145.412C115.874 145.412 113.589 144.784 111.588 143.529C109.587 142.273 108.012 140.488 106.865 138.173C105.717 135.858 105.143 133.111 105.143 129.933C105.143 126.755 105.717 124.008 106.865 121.693C108.012 119.378 109.587 117.593 111.588 116.337C113.589 115.082 115.874 114.454 118.444 114.454C121.014 114.454 123.3 115.082 125.301 116.337C127.302 117.593 128.877 119.378 130.024 121.693C131.172 124.008 131.746 126.755 131.746 129.933ZM128.214 129.933C128.214 127.324 127.778 125.122 126.905 123.326C126.042 121.531 124.869 120.173 123.388 119.251C121.917 118.329 120.269 117.868 118.444 117.868C116.62 117.868 114.967 118.329 113.486 119.251C112.014 120.173 110.842 121.531 109.969 123.326C109.106 125.122 108.674 127.324 108.674 129.933C108.674 132.542 109.106 134.744 109.969 136.54C110.842 138.335 112.014 139.693 113.486 140.615C114.967 141.537 116.62 141.998 118.444 141.998C120.269 141.998 121.917 141.537 123.388 140.615C124.869 139.693 126.042 138.335 126.905 136.54C127.778 134.744 128.214 132.542 128.214 129.933ZM154.361 122.399C154.184 120.908 153.468 119.751 152.213 118.927C150.957 118.103 149.417 117.691 147.593 117.691C146.258 117.691 145.091 117.907 144.091 118.338C143.1 118.77 142.325 119.364 141.766 120.119C141.217 120.874 140.942 121.732 140.942 122.694C140.942 123.498 141.133 124.19 141.516 124.768C141.908 125.337 142.408 125.813 143.017 126.196C143.625 126.568 144.262 126.877 144.929 127.123C145.596 127.358 146.209 127.549 146.769 127.696L149.829 128.52C150.614 128.726 151.487 129.011 152.448 129.374C153.419 129.737 154.346 130.232 155.229 130.86C156.122 131.478 156.857 132.272 157.436 133.244C158.015 134.215 158.304 135.407 158.304 136.819C158.304 138.447 157.878 139.919 157.024 141.233C156.181 142.548 154.945 143.592 153.316 144.367C151.698 145.142 149.731 145.53 147.416 145.53C145.258 145.53 143.389 145.181 141.81 144.485C140.241 143.789 139.005 142.817 138.102 141.572C137.209 140.326 136.704 138.879 136.587 137.231H140.353C140.451 138.369 140.834 139.311 141.501 140.056C142.178 140.792 143.031 141.341 144.061 141.704C145.101 142.057 146.219 142.234 147.416 142.234C148.809 142.234 150.06 142.008 151.168 141.557C152.276 141.096 153.154 140.458 153.802 139.644C154.449 138.82 154.773 137.859 154.773 136.76C154.773 135.76 154.493 134.946 153.934 134.318C153.375 133.69 152.639 133.18 151.727 132.787C150.815 132.395 149.829 132.052 148.77 131.758L145.062 130.698C142.708 130.021 140.844 129.055 139.47 127.799C138.097 126.544 137.411 124.901 137.411 122.87C137.411 121.183 137.867 119.712 138.779 118.456C139.701 117.191 140.937 116.21 142.487 115.513C144.047 114.807 145.788 114.454 147.71 114.454C149.652 114.454 151.379 114.802 152.89 115.499C154.4 116.185 155.597 117.127 156.48 118.324C157.372 119.52 157.843 120.879 157.892 122.399H154.361ZM162.656 118.103V114.866H185.256V118.103H175.781V145H172.132V118.103H162.656Z" fill="#666666"/>
</svg>
