<svg width="260" height="260" viewBox="0 0 260 260" fill="none" xmlns="http://www.w3.org/2000/svg">
<path d="M130 255C199.036 255 255 199.036 255 130C255 60.9644 199.036 5 130 5C60.9644 5 5 60.9644 5 130C5 199.036 60.9644 255 130 255Z" stroke="#999999" stroke-width="10" stroke-miterlimit="10"/>
<path d="M70.5227 115.909H74.7273L84.6136 140.057H84.9545L94.8409 115.909H99.0455V145H95.75V122.898H95.4659L86.375 145H83.1932L74.1023 122.898H73.8182V145H70.5227V115.909ZM106.109 145V115.909H123.665V119.034H109.631V128.864H122.756V131.989H109.631V141.875H123.893V145H106.109ZM113.325 112.955L116.79 106.364H120.711L116.279 112.955H113.325ZM138.992 145H130.015V115.909H139.39C142.212 115.909 144.627 116.491 146.634 117.656C148.642 118.812 150.181 120.473 151.251 122.642C152.321 124.801 152.856 127.386 152.856 130.398C152.856 133.428 152.316 136.037 151.237 138.224C150.157 140.402 148.585 142.079 146.521 143.253C144.456 144.418 141.947 145 138.992 145ZM133.538 141.875H138.765C141.17 141.875 143.164 141.411 144.745 140.483C146.326 139.555 147.505 138.234 148.282 136.52C149.058 134.806 149.447 132.765 149.447 130.398C149.447 128.049 149.063 126.027 148.296 124.332C147.529 122.628 146.383 121.321 144.859 120.412C143.334 119.493 141.435 119.034 139.163 119.034H133.538V141.875ZM162.288 115.909V145H158.765V115.909H162.288ZM170.544 145H166.851L177.533 115.909H181.169L191.851 145H188.158L179.464 120.511H179.237L170.544 145ZM171.908 133.636H186.794V136.761H171.908V133.636Z" fill="#666666"/>
</svg>
