<svg width="260" height="260" viewBox="0 0 260 260" fill="none" xmlns="http://www.w3.org/2000/svg">
<path d="M130 255C199.036 255 255 199.036 255 130C255 60.9644 199.036 5 130 5C60.9644 5 5 60.9644 5 130C5 199.036 60.9644 255 130 255Z" stroke="#71BC4C" stroke-width="10" stroke-miterlimit="10"/>
<path d="M70.5227 145V115.909H80.3523C82.6345 115.909 84.5 116.321 85.9489 117.145C87.4072 117.959 88.4867 119.062 89.1875 120.455C89.8883 121.847 90.2386 123.4 90.2386 125.114C90.2386 126.828 89.8883 128.385 89.1875 129.787C88.4962 131.188 87.4261 132.306 85.9773 133.139C84.5284 133.963 82.6723 134.375 80.4091 134.375H73.3636V131.25H80.2955C81.858 131.25 83.1127 130.98 84.0597 130.44C85.0066 129.901 85.6932 129.171 86.1193 128.253C86.5549 127.325 86.7727 126.278 86.7727 125.114C86.7727 123.949 86.5549 122.907 86.1193 121.989C85.6932 121.07 85.0019 120.35 84.0455 119.83C83.089 119.299 81.8201 119.034 80.2386 119.034H74.0455V145H70.5227ZM95.9134 145V115.909H105.743C108.016 115.909 109.881 116.297 111.339 117.074C112.798 117.841 113.877 118.897 114.578 120.241C115.279 121.586 115.629 123.116 115.629 124.83C115.629 126.544 115.279 128.063 114.578 129.389C113.877 130.715 112.803 131.757 111.354 132.514C109.905 133.262 108.054 133.636 105.8 133.636H97.8452V130.455H105.686C107.239 130.455 108.489 130.227 109.436 129.773C110.393 129.318 111.084 128.674 111.51 127.841C111.946 126.998 112.163 125.994 112.163 124.83C112.163 123.665 111.946 122.647 111.51 121.776C111.074 120.904 110.378 120.232 109.422 119.759C108.465 119.276 107.201 119.034 105.629 119.034H99.4361V145H95.9134ZM109.607 131.932L116.766 145H112.675L105.629 131.932H109.607ZM121.499 145V115.909H139.056V119.034H125.022V128.864H138.147V131.989H125.022V141.875H139.283V145H121.499ZM161.315 123.182C161.144 121.742 160.453 120.625 159.241 119.83C158.029 119.034 156.542 118.636 154.781 118.636C153.493 118.636 152.366 118.845 151.4 119.261C150.443 119.678 149.695 120.251 149.156 120.98C148.625 121.709 148.36 122.538 148.36 123.466C148.36 124.242 148.545 124.91 148.914 125.469C149.293 126.018 149.776 126.477 150.363 126.847C150.95 127.206 151.566 127.505 152.21 127.741C152.853 127.969 153.445 128.153 153.985 128.295L156.94 129.091C157.697 129.29 158.54 129.564 159.468 129.915C160.406 130.265 161.3 130.743 162.153 131.349C163.014 131.946 163.725 132.713 164.283 133.651C164.842 134.588 165.121 135.739 165.121 137.102C165.121 138.674 164.71 140.095 163.886 141.364C163.071 142.633 161.878 143.641 160.306 144.389C158.744 145.137 156.845 145.511 154.61 145.511C152.527 145.511 150.723 145.175 149.198 144.503C147.683 143.83 146.49 142.893 145.619 141.69C144.757 140.488 144.269 139.091 144.156 137.5H147.792C147.887 138.598 148.256 139.508 148.9 140.227C149.553 140.937 150.377 141.468 151.371 141.818C152.375 142.159 153.455 142.33 154.61 142.33C155.955 142.33 157.162 142.112 158.232 141.676C159.302 141.231 160.15 140.616 160.775 139.83C161.4 139.034 161.712 138.106 161.712 137.045C161.712 136.08 161.442 135.294 160.903 134.688C160.363 134.081 159.653 133.589 158.772 133.21C157.891 132.831 156.94 132.5 155.917 132.216L152.337 131.193C150.065 130.54 148.265 129.607 146.94 128.395C145.614 127.183 144.951 125.597 144.951 123.636C144.951 122.008 145.391 120.587 146.272 119.375C147.162 118.153 148.355 117.206 149.852 116.534C151.357 115.852 153.038 115.511 154.894 115.511C156.769 115.511 158.436 115.848 159.894 116.52C161.353 117.183 162.508 118.092 163.36 119.247C164.222 120.402 164.676 121.714 164.724 123.182H161.315ZM186.822 123.182C186.652 121.742 185.961 120.625 184.749 119.83C183.536 119.034 182.05 118.636 180.288 118.636C179 118.636 177.874 118.845 176.908 119.261C175.951 119.678 175.203 120.251 174.663 120.98C174.133 121.709 173.868 122.538 173.868 123.466C173.868 124.242 174.053 124.91 174.422 125.469C174.801 126.018 175.284 126.477 175.871 126.847C176.458 127.206 177.073 127.505 177.717 127.741C178.361 127.969 178.953 128.153 179.493 128.295L182.447 129.091C183.205 129.29 184.048 129.564 184.976 129.915C185.913 130.265 186.808 130.743 187.661 131.349C188.522 131.946 189.232 132.713 189.791 133.651C190.35 134.588 190.629 135.739 190.629 137.102C190.629 138.674 190.217 140.095 189.393 141.364C188.579 142.633 187.386 143.641 185.814 144.389C184.251 145.137 182.353 145.511 180.118 145.511C178.035 145.511 176.231 145.175 174.706 144.503C173.191 143.83 171.998 142.893 171.126 141.69C170.265 140.488 169.777 139.091 169.663 137.5H173.3C173.394 138.598 173.764 139.508 174.408 140.227C175.061 140.937 175.885 141.468 176.879 141.818C177.883 142.159 178.963 142.33 180.118 142.33C181.463 142.33 182.67 142.112 183.74 141.676C184.81 141.231 185.658 140.616 186.283 139.83C186.908 139.034 187.22 138.106 187.22 137.045C187.22 136.08 186.95 135.294 186.411 134.688C185.871 134.081 185.161 133.589 184.28 133.21C183.399 132.831 182.447 132.5 181.425 132.216L177.845 131.193C175.572 130.54 173.773 129.607 172.447 128.395C171.122 127.183 170.459 125.597 170.459 123.636C170.459 122.008 170.899 120.587 171.78 119.375C172.67 118.153 173.863 117.206 175.359 116.534C176.865 115.852 178.546 115.511 180.402 115.511C182.277 115.511 183.944 115.848 185.402 116.52C186.86 117.183 188.016 118.092 188.868 119.247C189.73 120.402 190.184 121.714 190.232 123.182H186.822Z" fill="#71BC4C"/>
</svg>
