<svg width="260" height="260" viewBox="0 0 260 260" fill="none" xmlns="http://www.w3.org/2000/svg">
<path d="M130 255C199.036 255 255 199.036 255 130C255 60.9644 199.036 5 130 5C60.9644 5 5 60.9644 5 130C5 199.036 60.9644 255 130 255Z" stroke="#999999" stroke-width="10" stroke-miterlimit="10"/>
<path d="M37.4318 123.182C37.2614 121.742 36.5701 120.625 35.358 119.83C34.1458 119.034 32.6591 118.636 30.8977 118.636C29.6098 118.636 28.483 118.845 27.517 119.261C26.5606 119.678 25.8125 120.251 25.2727 120.98C24.7424 121.709 24.4773 122.538 24.4773 123.466C24.4773 124.242 24.6619 124.91 25.0312 125.469C25.41 126.018 25.893 126.477 26.4801 126.847C27.0672 127.206 27.6828 127.505 28.3267 127.741C28.9706 127.969 29.5625 128.153 30.1023 128.295L33.0568 129.091C33.8144 129.29 34.6572 129.564 35.5852 129.915C36.5227 130.265 37.4176 130.743 38.2699 131.349C39.1316 131.946 39.8419 132.713 40.4006 133.651C40.9593 134.588 41.2386 135.739 41.2386 137.102C41.2386 138.674 40.8267 140.095 40.0028 141.364C39.1884 142.633 37.9953 143.641 36.4233 144.389C34.8608 145.137 32.9621 145.511 30.7273 145.511C28.6439 145.511 26.84 145.175 25.3153 144.503C23.8002 143.83 22.607 142.893 21.7358 141.69C20.8741 140.488 20.3864 139.091 20.2727 137.5H23.9091C24.0038 138.598 24.3731 139.508 25.017 140.227C25.6705 140.937 26.4943 141.468 27.4886 141.818C28.4924 142.159 29.572 142.33 30.7273 142.33C32.072 142.33 33.2794 142.112 34.3494 141.676C35.4195 141.231 36.267 140.616 36.892 139.83C37.517 139.034 37.8295 138.106 37.8295 137.045C37.8295 136.08 37.5597 135.294 37.0199 134.688C36.4801 134.081 35.7699 133.589 34.8892 133.21C34.0085 132.831 33.0568 132.5 32.0341 132.216L28.4545 131.193C26.1818 130.54 24.3826 129.607 23.0568 128.395C21.7311 127.183 21.0682 125.597 21.0682 123.636C21.0682 122.008 21.5085 120.587 22.3892 119.375C23.2794 118.153 24.4725 117.206 25.9688 116.534C27.4744 115.852 29.1553 115.511 31.0114 115.511C32.8864 115.511 34.553 115.848 36.0114 116.52C37.4697 117.183 38.625 118.092 39.4773 119.247C40.339 120.402 40.7936 121.714 40.8409 123.182H37.4318ZM71.576 130.455C71.576 133.523 71.022 136.174 69.9141 138.409C68.8061 140.644 67.2862 142.367 65.3544 143.58C63.4226 144.792 61.2161 145.398 58.7351 145.398C56.254 145.398 54.0476 144.792 52.1158 143.58C50.1839 142.367 48.6641 140.644 47.5561 138.409C46.4482 136.174 45.8942 133.523 45.8942 130.455C45.8942 127.386 46.4482 124.735 47.5561 122.5C48.6641 120.265 50.1839 118.542 52.1158 117.33C54.0476 116.117 56.254 115.511 58.7351 115.511C61.2161 115.511 63.4226 116.117 65.3544 117.33C67.2862 118.542 68.8061 120.265 69.9141 122.5C71.022 124.735 71.576 127.386 71.576 130.455ZM68.1669 130.455C68.1669 127.936 67.7455 125.81 66.9027 124.077C66.0694 122.344 64.9377 121.032 63.5078 120.142C62.0874 119.252 60.4964 118.807 58.7351 118.807C56.9737 118.807 55.3781 119.252 53.9482 120.142C52.5277 121.032 51.3961 122.344 50.5533 124.077C49.7199 125.81 49.3033 127.936 49.3033 130.455C49.3033 132.973 49.7199 135.099 50.5533 136.832C51.3961 138.565 52.5277 139.877 53.9482 140.767C55.3781 141.657 56.9737 142.102 58.7351 142.102C60.4964 142.102 62.0874 141.657 63.5078 140.767C64.9377 139.877 66.0694 138.565 66.9027 136.832C67.7455 135.099 68.1669 132.973 68.1669 130.455ZM100.908 125H97.3857C97.1773 123.987 96.8127 123.097 96.2919 122.33C95.7805 121.562 95.1555 120.919 94.4169 120.398C93.6877 119.867 92.8781 119.47 91.9879 119.205C91.0978 118.939 90.1697 118.807 89.2038 118.807C87.4425 118.807 85.8468 119.252 84.4169 120.142C82.9964 121.032 81.8648 122.344 81.022 124.077C80.1887 125.81 79.772 127.936 79.772 130.455C79.772 132.973 80.1887 135.099 81.022 136.832C81.8648 138.565 82.9964 139.877 84.4169 140.767C85.8468 141.657 87.4425 142.102 89.2038 142.102C90.1697 142.102 91.0978 141.97 91.9879 141.705C92.8781 141.439 93.6877 141.046 94.4169 140.526C95.1555 139.995 95.7805 139.347 96.2919 138.58C96.8127 137.803 97.1773 136.913 97.3857 135.909H100.908C100.643 137.396 100.16 138.726 99.4595 139.901C98.7588 141.075 97.8875 142.074 96.8459 142.898C95.8042 143.712 94.6347 144.332 93.3374 144.759C92.0495 145.185 90.6716 145.398 89.2038 145.398C86.7228 145.398 84.5163 144.792 82.5845 143.58C80.6527 142.367 79.1328 140.644 78.0249 138.409C76.9169 136.174 76.3629 133.523 76.3629 130.455C76.3629 127.386 76.9169 124.735 78.0249 122.5C79.1328 120.265 80.6527 118.542 82.5845 117.33C84.5163 116.117 86.7228 115.511 89.2038 115.511C90.6716 115.511 92.0495 115.724 93.3374 116.151C94.6347 116.577 95.8042 117.202 96.8459 118.026C97.8875 118.84 98.7588 119.834 99.4595 121.009C100.16 122.173 100.643 123.504 100.908 125ZM117.851 115.909H122.055L131.942 140.057H132.283L142.169 115.909H146.374V145H143.078V122.898H142.794L133.703 145H130.521L121.43 122.898H121.146V145H117.851V115.909ZM153.437 145V115.909H170.994V119.034H156.96V128.864H170.085V131.989H156.96V141.875H171.221V145H153.437ZM160.653 112.955L164.119 106.364H168.039L163.607 112.955H160.653ZM186.32 145H177.343V115.909H186.718C189.54 115.909 191.955 116.491 193.962 117.656C195.97 118.812 197.509 120.473 198.579 122.642C199.649 124.801 200.184 127.386 200.184 130.398C200.184 133.428 199.644 136.037 198.565 138.224C197.485 140.402 195.913 142.079 193.849 143.253C191.784 144.418 189.275 145 186.32 145ZM180.866 141.875H186.093C188.498 141.875 190.492 141.411 192.073 140.483C193.655 139.555 194.834 138.234 195.61 136.52C196.387 134.806 196.775 132.765 196.775 130.398C196.775 128.049 196.391 126.027 195.624 124.332C194.857 122.628 193.711 121.321 192.187 120.412C190.662 119.493 188.763 119.034 186.491 119.034H180.866V141.875ZM209.616 115.909V145H206.093V115.909H209.616ZM217.872 145H214.179L224.861 115.909H228.497L239.179 145H235.486L226.793 120.511H226.565L217.872 145ZM219.236 133.636H234.122V136.761H219.236V133.636Z" fill="#666666"/>
</svg>
