<svg width="260" height="260" viewBox="0 0 260 260" fill="none" xmlns="http://www.w3.org/2000/svg">
<path d="M130 255C199.036 255 255 199.036 255 130C255 60.9644 199.036 5 130 5C60.9644 5 5 60.9644 5 130C5 199.036 60.9644 255 130 255Z" stroke="#999999" stroke-width="10" stroke-miterlimit="10"/>
<path d="M77.4318 123.182C77.2614 121.742 76.5701 120.625 75.358 119.83C74.1458 119.034 72.6591 118.636 70.8977 118.636C69.6098 118.636 68.483 118.845 67.517 119.261C66.5606 119.678 65.8125 120.251 65.2727 120.98C64.7424 121.709 64.4773 122.538 64.4773 123.466C64.4773 124.242 64.6619 124.91 65.0312 125.469C65.41 126.018 65.893 126.477 66.4801 126.847C67.0672 127.206 67.6828 127.505 68.3267 127.741C68.9706 127.969 69.5625 128.153 70.1023 128.295L73.0568 129.091C73.8144 129.29 74.6572 129.564 75.5852 129.915C76.5227 130.265 77.4176 130.743 78.2699 131.349C79.1316 131.946 79.8419 132.713 80.4006 133.651C80.9593 134.588 81.2386 135.739 81.2386 137.102C81.2386 138.674 80.8267 140.095 80.0028 141.364C79.1884 142.633 77.9953 143.641 76.4233 144.389C74.8608 145.137 72.9621 145.511 70.7273 145.511C68.6439 145.511 66.84 145.175 65.3153 144.503C63.8002 143.83 62.607 142.893 61.7358 141.69C60.8741 140.488 60.3864 139.091 60.2727 137.5H63.9091C64.0038 138.598 64.3731 139.508 65.017 140.227C65.6705 140.937 66.4943 141.468 67.4886 141.818C68.4924 142.159 69.572 142.33 70.7273 142.33C72.072 142.33 73.2794 142.112 74.3494 141.676C75.4195 141.231 76.267 140.616 76.892 139.83C77.517 139.034 77.8295 138.106 77.8295 137.045C77.8295 136.08 77.5597 135.294 77.0199 134.688C76.4801 134.081 75.7699 133.589 74.8892 133.21C74.0085 132.831 73.0568 132.5 72.0341 132.216L68.4545 131.193C66.1818 130.54 64.3826 129.607 63.0568 128.395C61.7311 127.183 61.0682 125.597 61.0682 123.636C61.0682 122.008 61.5085 120.587 62.3892 119.375C63.2794 118.153 64.4725 117.206 65.9688 116.534C67.4744 115.852 69.1553 115.511 71.0114 115.511C72.8864 115.511 74.553 115.848 76.0114 116.52C77.4697 117.183 78.625 118.092 79.4773 119.247C80.339 120.402 80.7936 121.714 80.8409 123.182H77.4318ZM87.0305 145V115.909H96.8601C99.1423 115.909 101.008 116.321 102.457 117.145C103.915 117.959 104.995 119.062 105.695 120.455C106.396 121.847 106.746 123.4 106.746 125.114C106.746 126.828 106.396 128.385 105.695 129.787C105.004 131.188 103.934 132.306 102.485 133.139C101.036 133.963 99.1802 134.375 96.9169 134.375H89.8714V131.25H96.8033C98.3658 131.25 99.6205 130.98 100.567 130.44C101.514 129.901 102.201 129.171 102.627 128.253C103.063 127.325 103.281 126.278 103.281 125.114C103.281 123.949 103.063 122.907 102.627 121.989C102.201 121.07 101.51 120.35 100.553 119.83C99.5968 119.299 98.3279 119.034 96.7464 119.034H90.5533V145H87.0305ZM136.967 130.455C136.967 133.523 136.413 136.174 135.305 138.409C134.197 140.644 132.677 142.367 130.745 143.58C128.813 144.792 126.607 145.398 124.126 145.398C121.645 145.398 119.438 144.792 117.506 143.58C115.575 142.367 114.055 140.644 112.947 138.409C111.839 136.174 111.285 133.523 111.285 130.455C111.285 127.386 111.839 124.735 112.947 122.5C114.055 120.265 115.575 118.542 117.506 117.33C119.438 116.117 121.645 115.511 124.126 115.511C126.607 115.511 128.813 116.117 130.745 117.33C132.677 118.542 134.197 120.265 135.305 122.5C136.413 124.735 136.967 127.386 136.967 130.455ZM133.558 130.455C133.558 127.936 133.136 125.81 132.293 124.077C131.46 122.344 130.328 121.032 128.898 120.142C127.478 119.252 125.887 118.807 124.126 118.807C122.364 118.807 120.769 119.252 119.339 120.142C117.918 121.032 116.787 122.344 115.944 124.077C115.111 125.81 114.694 127.936 114.694 130.455C114.694 132.973 115.111 135.099 115.944 136.832C116.787 138.565 117.918 139.877 119.339 140.767C120.769 141.657 122.364 142.102 124.126 142.102C125.887 142.102 127.478 141.657 128.898 140.767C130.328 139.877 131.46 138.565 132.293 136.832C133.136 135.099 133.558 132.973 133.558 130.455ZM165.958 115.909V145H162.549L146.697 122.159H146.413V145H142.89V115.909H146.299L162.208 138.807H162.492V115.909H165.958ZM172.041 145V142.443L187.723 119.034H171.871V115.909H191.928V118.466L176.246 141.875H192.098V145H172.041ZM201.53 115.909V145H198.007V115.909H201.53Z" fill="#666666"/>
</svg>
